<svg xmlns="http://www.w3.org/2000/svg" viewBox="0 0 100 100">
  <circle cx="50" cy="50" r="38" fill="none" stroke="#F97316" stroke-width="6"/>
  <line x1="50" y1="38" x2="50" y2="48" stroke="#F97316" stroke-width="4" stroke-linecap="round" transform="rotate(0.0 50 50)"/>
  <line x1="50" y1="38" x2="50" y2="48" stroke="#F97316" stroke-width="4" stroke-linecap="round" transform="rotate(20.0 50 50)"/>
  <line x1="50" y1="38" x2="50" y2="48" stroke="#F97316" stroke-width="4" stroke-linecap="round" transform="rotate(40.0 50 50)"/>
  <line x1="50" y1="38" x2="50" y2="48" stroke="#F97316" stroke-width="4" stroke-linecap="round" transform="rotate(60.0 50 50)"/>
  <line x1="50" y1="38" x2="50" y2="48" stroke="#F97316" stroke-width="4" stroke-linecap="round" transform="rotate(80.0 50 50)"/>
  <line x1="50" y1="38" x2="50" y2="48" stroke="#F97316" stroke-width="4" stroke-linecap="round" transform="rotate(100.0 50 50)"/>
  <line x1="50" y1="38" x2="50" y2="48" stroke="#F97316" stroke-width="4" stroke-linecap="round" transform="rotate(120.0 50 50)"/>
  <line x1="50" y1="38" x2="50" y2="48" stroke="#F97316" stroke-width="4" stroke-linecap="round" transform="rotate(140.0 50 50)"/>
  <line x1="50" y1="38" x2="50" y2="48" stroke="#F97316" stroke-width="4" stroke-linecap="round" transform="rotate(160.0 50 50)"/>
  <line x1="50" y1="38" x2="50" y2="48" stroke="#F97316" stroke-width="4" stroke-linecap="round" transform="rotate(180.0 50 50)"/>
  <line x1="50" y1="38" x2="50" y2="48" stroke="#F97316" stroke-width="4" stroke-linecap="round" transform="rotate(200.0 50 50)"/>
  <line x1="50" y1="38" x2="50" y2="48" stroke="#F97316" stroke-width="4" stroke-linecap="round" transform="rotate(220.0 50 50)"/>
  <line x1="50" y1="38" x2="50" y2="48" stroke="#F97316" stroke-width="4" stroke-linecap="round" transform="rotate(240.0 50 50)"/>
  <line x1="50" y1="38" x2="50" y2="48" stroke="#F97316" stroke-width="4" stroke-linecap="round" transform="rotate(260.0 50 50)"/>
  <line x1="50" y1="38" x2="50" y2="48" stroke="#F97316" stroke-width="4" stroke-linecap="round" transform="rotate(280.0 50 50)"/>
  <line x1="50" y1="38" x2="50" y2="48" stroke="#F97316" stroke-width="4" stroke-linecap="round" transform="rotate(300.0 50 50)"/>
  <line x1="50" y1="38" x2="50" y2="48" stroke="#F97316" stroke-width="4" stroke-linecap="round" transform="rotate(320.0 50 50)"/>
  <line x1="50" y1="38" x2="50" y2="48" stroke="#F97316" stroke-width="4" stroke-linecap="round" transform="rotate(340.0 50 50)"/>
  <circle cx="50" cy="50" r="24" fill="#0B0B0D" stroke="#F97316" stroke-width="3"/>
  <line x1="50" y1="38" x2="50" y2="25" stroke="#F97316" stroke-width="5" stroke-linecap="round" transform="rotate(0.0 50 50)"/>
  <line x1="50" y1="38" x2="50" y2="25" stroke="#F97316" stroke-width="5" stroke-linecap="round" transform="rotate(72.0 50 50)"/>
  <line x1="50" y1="38" x2="50" y2="25" stroke="#F97316" stroke-width="5" stroke-linecap="round" transform="rotate(144.0 50 50)"/>
  <line x1="50" y1="38" x2="50" y2="25" stroke="#F97316" stroke-width="5" stroke-linecap="round" transform="rotate(216.0 50 50)"/>
  <line x1="50" y1="38" x2="50" y2="25" stroke="#F97316" stroke-width="5" stroke-linecap="round" transform="rotate(288.0 50 50)"/>
  <circle cx="50" cy="50" r="7" fill="#F97316"/>
</svg>
